<svg width="141" height="32" viewBox="0 0 141 32" fill="none" xmlns="http://www.w3.org/2000/svg">
<g clip-path="url(#clip0_5593_591)">
<path fill-rule="evenodd" clip-rule="evenodd" d="M2.2197 3.70953C0.539062 6.04315 0.539062 9.3621 0.539062 16C0.539062 22.6379 0.539062 25.9569 2.2197 28.2904C2.78293 29.0725 3.4693 29.7582 4.25209 30.321C6.58791 32 9.90999 32 16.5541 32C23.1983 32 26.5204 32 28.8561 30.321C29.639 29.7582 30.3253 29.0725 30.8887 28.2904C32.5692 25.9569 32.5692 22.6379 32.5692 16C32.5692 9.3621 32.5692 6.04315 30.8887 3.70953C30.3253 2.92748 29.639 2.24175 28.8561 1.67905C26.5204 0 23.1983 0 16.5541 0C9.90999 0 6.58791 0 4.25209 1.67905C3.4693 2.24175 2.78293 2.92748 2.2197 3.70953ZM23.103 11.6283C23.9685 12.9223 24.4304 14.4437 24.4304 16H16.5541V23.8689C14.9964 23.8689 13.4736 23.4073 12.1783 22.5427C10.8831 21.6781 9.87355 20.4491 9.27742 19.0113C8.68129 17.5734 8.52531 15.9913 8.82921 14.4649C9.13312 12.9385 9.88326 11.5364 10.9848 10.4359C12.0863 9.3354 13.4897 8.58597 15.0176 8.28233C16.5454 7.97873 18.1291 8.13456 19.5683 8.73012C21.0075 9.32569 22.2376 10.3343 23.103 11.6283Z" fill="#363636"/>
<path d="M45.703 23.0819C44.7339 23.0819 43.8313 22.9071 42.9956 22.5576C42.1718 22.2081 41.4511 21.72 40.8333 21.0933C40.2156 20.4667 39.7312 19.7315 39.3799 18.8879C39.0407 18.0443 38.8711 17.1223 38.8711 16.122C38.8711 15.1217 39.0407 14.1998 39.3799 13.3562C39.7191 12.5005 40.1975 11.7653 40.8152 11.1507C41.433 10.524 42.1537 10.0419 42.9775 9.70449C43.8132 9.35498 44.7216 9.18024 45.703 9.18024C46.6841 9.18024 47.5623 9.34294 48.3373 9.66834C49.1247 9.99372 49.791 10.4276 50.3361 10.9699C50.8811 11.5122 51.2689 12.1148 51.4989 12.7777L49.0097 13.9708C48.7797 13.32 48.3738 12.7837 47.7923 12.3619C47.2231 11.928 46.5266 11.7111 45.703 11.7111C44.9033 11.7111 44.201 11.8979 43.5953 12.2715C42.9896 12.6451 42.517 13.1633 42.1781 13.8262C41.8509 14.477 41.6874 15.2422 41.6874 16.122C41.6874 17.0018 41.8509 17.7731 42.1781 18.4359C42.517 19.0988 42.9896 19.617 43.5953 19.9906C44.201 20.3642 44.9033 20.551 45.703 20.551C46.5266 20.551 47.2231 20.3401 47.7923 19.9183C48.3738 19.4844 48.7797 18.9421 49.0097 18.2913L51.4989 19.4844C51.2689 20.1473 50.8811 20.7499 50.3361 21.2922C49.791 21.8345 49.1247 22.2684 48.3373 22.5938C47.5623 22.9192 46.6841 23.0819 45.703 23.0819Z" fill="#363636"/>
<path d="M57.8531 23.0819C56.8717 23.0819 55.9754 22.859 55.1639 22.413C54.3645 21.9671 53.7225 21.3585 53.2379 20.5872C52.7656 19.8039 52.5293 18.9181 52.5293 17.9298C52.5293 16.9295 52.7656 16.0437 53.2379 15.2724C53.7225 14.5011 54.3645 13.8925 55.1639 13.4466C55.9754 13.0007 56.8717 12.7777 57.8531 12.7777C58.8343 12.7777 59.7245 13.0007 60.524 13.4466C61.3234 13.8925 61.9593 14.5011 62.4319 15.2724C62.9163 16.0437 63.1586 16.9295 63.1586 17.9298C63.1586 18.9181 62.9163 19.8039 62.4319 20.5872C61.9593 21.3585 61.3234 21.9671 60.524 22.413C59.7245 22.859 58.8343 23.0819 57.8531 23.0819ZM57.8531 20.6414C58.3496 20.6414 58.7796 20.527 59.143 20.298C59.5184 20.069 59.8093 19.7496 60.0152 19.3399C60.2333 18.9301 60.3423 18.4601 60.3423 17.9298C60.3423 17.3995 60.2333 16.9356 60.0152 16.5378C59.8093 16.1281 59.5184 15.8087 59.143 15.5797C58.7796 15.3387 58.3496 15.2182 57.8531 15.2182C57.3564 15.2182 56.9203 15.3387 56.5449 15.5797C56.1692 15.8087 55.8725 16.1281 55.6546 16.5378C55.4485 16.9356 55.3456 17.3995 55.3456 17.9298C55.3456 18.4601 55.4485 18.9301 55.6546 19.3399C55.8725 19.7496 56.1692 20.069 56.5449 20.298C56.9203 20.527 57.3564 20.6414 57.8531 20.6414Z" fill="#363636"/>
<path d="M64.7637 22.865V12.9947H67.3074V14.947L67.1623 14.5132C67.3922 13.9226 67.7616 13.4888 68.2705 13.2116C68.7913 12.9223 69.397 12.7777 70.0875 12.7777C70.8384 12.7777 71.4926 12.9344 72.0497 13.2477C72.6192 13.5611 73.0613 14.0009 73.3761 14.5674C73.6912 15.1218 73.8484 15.7726 73.8484 16.5198V22.865H71.1232V17.0983C71.1232 16.7126 71.0445 16.3812 70.887 16.104C70.7415 15.8268 70.5296 15.6099 70.2511 15.4532C69.9846 15.2965 69.6695 15.2182 69.3062 15.2182C68.9549 15.2182 68.6398 15.2965 68.3613 15.4532C68.0827 15.6099 67.8648 15.8268 67.7073 16.104C67.5618 16.3812 67.4891 16.7126 67.4891 17.0983V22.865H64.7637Z" fill="#363636"/>
<path d="M78.5704 22.865L74.6641 12.9947H77.6074L80.3148 20.4607H79.1882L81.8955 12.9947H84.8389L80.9325 22.865H78.5704Z" fill="#363636"/>
<path d="M90.6393 23.0819C89.5855 23.0819 88.671 22.8529 87.8958 22.395C87.1205 21.925 86.5211 21.2983 86.0971 20.5149C85.6731 19.7315 85.4609 18.8638 85.4609 17.9117C85.4609 16.9235 85.6791 16.0437 86.1152 15.2724C86.5634 14.5011 87.163 13.8925 87.9139 13.4466C88.665 13.0007 89.513 12.7777 90.4576 12.7777C91.245 12.7777 91.9415 12.9043 92.5472 13.1573C93.1529 13.3984 93.6617 13.7419 94.0734 14.1878C94.4974 14.6337 94.8185 15.1519 95.0364 15.7424C95.2546 16.3209 95.3635 16.9536 95.3635 17.6406C95.3635 17.8334 95.3514 18.0262 95.3273 18.219C95.3149 18.3998 95.2847 18.5565 95.2362 18.6891H87.8049V16.7005H93.6919L92.4018 17.6406C92.5231 17.1223 92.517 16.6644 92.3836 16.2667C92.2505 15.8569 92.0143 15.5376 91.6751 15.3086C91.3479 15.0675 90.9423 14.947 90.4576 14.947C89.9853 14.947 89.5794 15.0615 89.2402 15.2905C88.9013 15.5195 88.6469 15.8569 88.4773 16.3028C88.3077 16.7488 88.241 17.2911 88.2772 17.9298C88.2289 18.4842 88.2956 18.9723 88.4773 19.3941C88.659 19.8159 88.9375 20.1473 89.313 20.3884C89.6887 20.6173 90.1429 20.7318 90.6758 20.7318C91.1602 20.7318 91.5721 20.6354 91.9113 20.4426C92.2626 20.2498 92.5351 19.9846 92.7289 19.6472L94.9093 20.6776C94.7156 21.1597 94.4065 21.5815 93.9825 21.943C93.5709 22.3046 93.0802 22.5878 92.511 22.7927C91.9415 22.9855 91.3177 23.0819 90.6393 23.0819Z" fill="#363636"/>
<path d="M96.9688 22.8651V12.9948H99.5125V15.3629L99.3308 15.0195C99.5488 14.1879 99.9061 13.6275 100.403 13.3383C100.912 13.037 101.511 12.8863 102.201 12.8863H102.783V15.2364H101.929C101.263 15.2364 100.724 15.4413 100.312 15.851C99.9 16.2487 99.6942 16.8152 99.6942 17.5503V22.8651H96.9688Z" fill="#363636"/>
<path d="M109.111 22.9735C107.912 22.9735 106.979 22.6541 106.313 22.0154C105.659 21.3646 105.332 20.4607 105.332 19.3037V15.3447H103.66V12.9947H103.751C104.26 12.9947 104.647 12.8681 104.914 12.615C105.192 12.3619 105.332 11.9823 105.332 11.4761V10.7531H108.057V12.9947H110.383V15.3447H108.057V19.123C108.057 19.4604 108.118 19.7436 108.239 19.9726C108.36 20.1895 108.548 20.3522 108.802 20.4607C109.056 20.5692 109.372 20.6234 109.747 20.6234C109.832 20.6234 109.929 20.6174 110.038 20.6053C110.147 20.5933 110.262 20.5812 110.383 20.5692V22.865C110.201 22.8891 109.995 22.9132 109.765 22.9373C109.535 22.9614 109.317 22.9735 109.111 22.9735Z" fill="#363636"/>
<path d="M112.18 22.865V9.39722H114.996V16.1402L114.215 15.869L119.629 9.39722H123.154L117.794 15.8328L117.958 13.8443L123.263 22.865H119.975L116.668 17.1706L114.996 19.1772V22.865H112.18Z" fill="#363636"/>
<path d="M124.453 22.865V12.9947H127.179V22.865H124.453ZM124.453 12.1088V9.39722H127.179V12.1088H124.453Z" fill="#363636"/>
<path d="M133.951 22.9735C132.752 22.9735 131.819 22.6541 131.153 22.0154C130.498 21.3646 130.172 20.4607 130.172 19.3037V15.3447H128.5V12.9947H128.591C129.099 12.9947 129.487 12.8681 129.754 12.615C130.032 12.3619 130.172 11.9823 130.172 11.4761V10.7531H132.897V12.9947H135.223V15.3447H132.897V19.123C132.897 19.4604 132.957 19.7436 133.079 19.9726C133.2 20.1895 133.387 20.3522 133.642 20.4607C133.896 20.5692 134.211 20.6234 134.587 20.6234C134.672 20.6234 134.768 20.6174 134.877 20.6053C134.986 20.5933 135.102 20.5812 135.223 20.5692V22.865C135.041 22.8891 134.835 22.9132 134.605 22.9373C134.375 22.9614 134.157 22.9735 133.951 22.9735Z" fill="#363636"/>
<path d="M136.975 11.9247V9.05872H138.072C138.27 9.05872 138.444 9.09334 138.596 9.16258C138.75 9.23183 138.87 9.33444 138.958 9.47036C139.045 9.60628 139.089 9.77426 139.089 9.97431C139.089 10.1692 139.044 10.3359 138.954 10.4744C138.864 10.6103 138.743 10.7129 138.592 10.7822L139.247 11.9247H138.577L137.868 10.6591L138.253 10.886H137.572V11.9247H136.975ZM137.572 10.3667H138.076C138.161 10.3667 138.234 10.35 138.295 10.3167C138.357 10.2833 138.405 10.2372 138.438 10.1782C138.474 10.1192 138.492 10.0512 138.492 9.97431C138.492 9.89481 138.474 9.82556 138.438 9.76657C138.405 9.70758 138.357 9.66142 138.295 9.62808C138.234 9.59474 138.161 9.57806 138.076 9.57806H137.572V10.3667Z" fill="#363636"/>
<path fill-rule="evenodd" clip-rule="evenodd" d="M138.112 8.04877C136.761 8.04877 135.666 9.14249 135.666 10.4917C135.666 11.8408 136.761 12.9346 138.112 12.9346C139.462 12.9346 140.557 11.8408 140.557 10.4917C140.557 9.14249 139.462 8.04877 138.112 8.04877ZM135.166 10.4917C135.166 8.86634 136.485 7.54877 138.112 7.54877C139.739 7.54877 141.057 8.86634 141.057 10.4917C141.057 12.117 139.739 13.4346 138.112 13.4346C136.485 13.4346 135.166 12.117 135.166 10.4917Z" fill="#363636"/>
</g>
<defs>
<clipPath id="clip0_5593_591">
<rect width="140.46" height="32" fill="white" transform="translate(0.539062)"/>
</clipPath>
</defs>
</svg>
