<svg width="20" height="20" viewBox="0 0 20 20" fill="none" xmlns="http://www.w3.org/2000/svg">
<path d="M8.2 19H11.8C14.7998 19 16.2997 19 17.3511 18.2361C17.6907 17.9893 17.9893 17.6907 18.2361 17.3511C19 16.2997 19 14.7998 19 11.8V8.2C19 5.20021 19 3.70032 18.2361 2.64886C17.9893 2.30928 17.6907 2.01065 17.3511 1.76393C16.2997 1 14.7998 1 11.8 1H8.2C5.20021 1 3.70032 1 2.64886 1.76393C2.30928 2.01065 2.01065 2.30928 1.76393 2.64886C1 3.70032 1 5.20021 1 8.2V11.8C1 14.7998 1 16.2997 1.76393 17.3511C2.01065 17.6907 2.30928 17.9893 2.64886 18.2361C3.70032 19 5.20021 19 8.2 19Z" stroke="#1ABC9C" stroke-width="1.5"/>
<path d="M11.9229 8.46146C13.1598 9.07989 13.7782 9.38911 13.8824 9.8518C13.9149 9.99641 13.9149 10.1464 13.8824 10.2911C13.7782 10.7538 13.1598 11.063 11.9229 11.6814L9.60498 12.8404C8.57618 13.3548 8.06177 13.612 7.65698 13.4642C7.52914 13.4175 7.41217 13.3452 7.31324 13.2517C7 12.9558 7 12.3806 7 11.2304L7 8.91246C7 7.76222 7 7.1871 7.31324 6.89115C7.41217 6.79768 7.52914 6.72539 7.65698 6.67871C8.06177 6.53089 8.57618 6.78809 9.60498 7.30249L11.9229 8.46146Z" stroke="#1ABC9C" stroke-width="1.5"/>
</svg>
