<svg width="20" height="20" viewBox="0 0 20 20" fill="none" xmlns="http://www.w3.org/2000/svg">
<path d="M8.2 19H11.8C14.7998 19 16.2997 19 17.3511 18.2361C17.6907 17.9893 17.9893 17.6907 18.2361 17.3511C19 16.2997 19 14.7998 19 11.8V8.2C19 5.20021 19 3.70032 18.2361 2.64886C17.9893 2.30928 17.6907 2.01065 17.3511 1.76393C16.2997 1 14.7998 1 11.8 1H8.2C5.20021 1 3.70032 1 2.64886 1.76393C2.30928 2.01065 2.01065 2.30928 1.76393 2.64886C1 3.70032 1 5.20021 1 8.2V11.8C1 14.7998 1 16.2997 1.76393 17.3511C2.01065 17.6907 2.30928 17.9893 2.64886 18.2361C3.70032 19 5.20021 19 8.2 19Z" stroke="#1ABC9C" stroke-width="1.5"/>
<circle cx="10" cy="10" r="4" stroke="#1ABC9C" stroke-width="1.5"/>
<circle cx="15" cy="5" r="1" fill="#1ABC9C"/>
</svg>
