<svg width="20" height="20" viewBox="0 0 20 20" fill="none" xmlns="http://www.w3.org/2000/svg">
<path d="M1 8.2V12.1875C1 14.8181 1 16.1334 1.59458 17.0984C1.92224 17.6301 2.36988 18.0778 2.90164 18.4054C3.86658 19 5.18189 19 7.8125 19H11.8C14.7998 19 16.2997 19 17.3511 18.2361C17.6907 17.9893 17.9893 17.6907 18.2361 17.3511C19 16.2997 19 14.7998 19 11.8V8.2C19 5.20021 19 3.70032 18.2361 2.64886C17.9893 2.30928 17.6907 2.01065 17.3511 1.76393C16.2997 1 14.7998 1 11.8 1H8.2C5.20021 1 3.70032 1 2.64886 1.76393C2.30928 2.01065 2.01065 2.30928 1.76393 2.64886C1 3.70032 1 5.20021 1 8.2Z" stroke="#1ABC9C" stroke-width="1.5"/>
<path fill-rule="evenodd" clip-rule="evenodd" d="M12.638 7.49555C12.2538 7.89017 12.2778 8.21186 12.2778 8.89859V9.98088H14.8333L14.3125 12.1455H12.2778V19H9.94444V12.1455H8V9.98088H9.94444V8.89865C9.94443 8.14229 10.0484 6.92591 10.9064 6.04465C11.8734 5.05154 13.0556 4.79439 15 5.15515V7.31974C13.4916 6.9381 12.8412 7.28681 12.638 7.49555Z" fill="#1ABC9C"/>
</svg>
