<svg width="110" height="22" viewBox="0 0 110 22" fill="none" xmlns="http://www.w3.org/2000/svg">
<path d="M0 0.277344H20.7736V21.5863H0V0.277344Z" fill="#1ABC9C"/>
<path d="M22.1582 0.277344H42.9318V21.5863H22.1582V0.277344Z" fill="#1ABC9C"/>
<path d="M44.3164 0.277344H65.09V21.5863H44.3164V0.277344Z" fill="#1ABC9C"/>
<path d="M66.4746 0.277344H87.2482V21.5863H66.4746V0.277344Z" fill="#1ABC9C"/>
<path d="M88.6328 0.277344H109.406V21.5863H88.6328V0.277344Z" fill="#1ABC9C"/>
<path d="M10.5865 14.0997L13.0471 13.4517L14.0752 16.7443L10.5865 14.0997ZM16.2493 9.84381H11.918L10.5865 5.60547L9.25513 9.84381H4.92383L8.42932 12.4709L7.09791 16.7092L10.6034 14.0822L12.7606 12.4709L16.2493 9.84381Z" fill="white"/>
<path d="M32.7447 14.0997L35.2053 13.4517L36.2334 16.7443L32.7447 14.0997ZM38.4075 9.84381H34.0762L32.7447 5.60547L31.4133 9.84381H27.082L30.5875 12.4709L29.2561 16.7092L32.7616 14.0822L34.9188 12.4709L38.4075 9.84381Z" fill="white"/>
<path d="M54.9049 14.0997L57.3655 13.4517L58.3935 16.7443L54.9049 14.0997ZM60.5676 9.84381H56.2363L54.9049 5.60547L53.5735 9.84381H49.2422L52.7477 12.4709L51.4163 16.7092L54.9218 14.0822L57.079 12.4709L60.5676 9.84381Z" fill="white"/>
<path d="M77.0631 14.0997L79.5237 13.4517L80.5517 16.7443L77.0631 14.0997ZM82.7258 9.84381H78.3945L77.0631 5.60547L75.7317 9.84381H71.4004L74.9059 12.4709L73.5745 16.7092L77.08 14.0822L79.2372 12.4709L82.7258 9.84381Z" fill="white"/>
<path d="M99.2213 14.0997L101.682 13.4517L102.71 16.7443L99.2213 14.0997ZM104.884 9.84381H100.553L99.2213 5.60547L97.8899 9.84381H93.5586L97.0641 12.4709L95.7327 16.7092L99.2382 14.0822L101.395 12.4709L104.884 9.84381Z" fill="white"/>
</svg>
