<svg width="125" height="40" viewBox="0 0 125 40" fill="none" xmlns="http://www.w3.org/2000/svg">
<circle cx="20" cy="20" r="20" fill="#1ABC9C"/>
<path d="M24.5842 15.4166C23.0911 15.416 21.6335 15.8713 20.4061 16.7214C19.1787 17.5716 18.24 18.7761 17.7156 20.1741L19.4334 20.8185C19.8872 19.6134 20.7492 18.6057 21.8694 17.9708C22.9897 17.3358 24.2971 17.1139 25.5641 17.3437C26.831 17.5734 27.9773 18.2403 28.8032 19.2281C29.6292 20.216 30.0825 21.4622 30.0842 22.7499C30.0842 24.2086 29.5047 25.6075 28.4733 26.639C27.4418 27.6704 26.0429 28.2499 24.5842 28.2499H15.4175C14.1188 28.2507 12.8617 27.7919 11.8688 26.9548C10.8759 26.1177 10.2113 24.9562 9.99261 23.676C9.77392 22.3959 10.0153 21.0796 10.674 19.9603C11.3327 18.8411 12.3662 17.991 13.5915 17.5606C13.513 15.9772 14.0235 14.4208 15.0245 13.1914C16.0255 11.962 17.4462 11.1467 19.0127 10.9027C20.5792 10.6586 22.1805 11.0032 23.5081 11.8698C24.8356 12.7365 25.7953 14.0639 26.2021 15.5962C25.6711 15.4765 25.1285 15.4162 24.5842 15.4166Z" fill="white"/>
<path d="M124.373 17.0398H122.661L122.645 15.2798H124.373V17.0398ZM124.389 25.9998H122.661V17.9998H124.389V25.9998Z" fill="black"/>
<path d="M116.785 26.1598C114.513 26.1598 113.281 24.5438 113.281 22.0158C113.281 19.5038 114.497 17.8878 116.689 17.8878C118.097 17.8878 118.945 18.5598 119.297 19.2798H119.345V15.2798H121.057V25.9998H119.473V24.6878H119.409C119.025 25.5998 118.145 26.1598 116.785 26.1598ZM115.009 22.0158C115.009 23.9838 115.633 24.6878 117.169 24.6878C118.577 24.6878 119.345 24.0638 119.345 22.7358V21.3118C119.345 19.9838 118.577 19.3598 117.169 19.3598C115.649 19.3598 115.009 20.0638 115.009 22.0158Z" fill="black"/>
<path d="M107.417 26.1597C105.993 26.1597 104.889 25.4237 104.889 24.0317C104.889 22.7197 105.849 22.0317 107.545 21.7917L110.329 21.3757V20.9437C110.329 19.7597 109.785 19.4077 108.537 19.4077C107.273 19.4077 106.777 19.8077 106.777 20.8637V21.1037H105.113V20.9437C105.113 19.1677 106.505 17.8877 108.633 17.8877C110.857 17.8877 111.977 19.2317 111.977 21.1677V25.9997H110.377V24.7517H110.297C109.833 25.5037 108.921 26.1597 107.417 26.1597ZM106.569 23.9037C106.569 24.5277 106.969 24.7837 107.977 24.7837C109.097 24.7837 110.329 24.3357 110.329 22.7357V22.5917L107.801 22.9757C106.889 23.1037 106.569 23.3117 106.569 23.9037Z" fill="black"/>
<path d="M101.016 25.9998H98.7281L94.6641 15.2798H96.6001L99.8321 24.0798H99.9601L103.16 15.2798H105.08L101.016 25.9998Z" fill="black"/>
<path d="M92.2133 26.1596C89.9893 26.1596 88.9493 25.2636 88.9493 23.2796V20.2396H87.8613V17.7756H89.0453L89.5733 16.0796H91.9573V17.7756H94.1333V20.2396H91.9573V22.8316C91.9573 23.3276 92.1333 23.4556 92.8213 23.4556H94.1333V25.9676C93.7173 26.0636 92.9653 26.1596 92.2133 26.1596Z" fill="black"/>
<path d="M81.7835 26.1599C79.6555 26.1599 78.8555 24.7359 78.8555 23.0399V17.7759H81.8635V22.4159C81.8635 23.2959 82.0715 23.5839 83.1275 23.5839C84.1195 23.5839 84.4235 23.3439 84.4235 22.4639V17.7759H87.4155V25.9999H84.6155V24.7519H84.4715C84.0235 25.6799 82.9995 26.1599 81.7835 26.1599Z" fill="black"/>
<path d="M77.9588 25.9998H74.9668V15.2798H77.9588V25.9998Z" fill="black"/>
<path d="M68.3772 26.1599C66.2492 26.1599 65.4492 24.7359 65.4492 23.0399V17.7759H68.4572V22.4159C68.4572 23.2959 68.6652 23.5839 69.7212 23.5839C70.7132 23.5839 71.0172 23.3439 71.0172 22.4639V17.7759H74.0092V25.9999H71.2092V24.7519H71.0652C70.6172 25.6799 69.5932 26.1599 68.3772 26.1599Z" fill="black"/>
<path d="M61.016 25.9998H55V15.2798H60.696C63.144 15.2798 64.344 16.0958 64.344 17.9198C64.344 19.2638 63.624 20.0798 62.152 20.2078V20.4158C63.96 20.4798 64.84 21.5838 64.84 23.0238C64.84 24.8958 63.64 25.9998 61.016 25.9998ZM58.008 17.9838V19.3598H60.536C61.16 19.3598 61.336 19.2158 61.336 18.6718C61.336 18.0958 61.096 17.9838 60.472 17.9838H58.008ZM58.008 21.6958V23.2958H60.904C61.48 23.2958 61.784 23.2158 61.784 22.5118C61.784 21.7918 61.512 21.6958 60.904 21.6958H58.008Z" fill="black"/>
</svg>
