<svg viewBox="0 0 47 41" fill="none" xmlns="http://www.w3.org/2000/svg" >
<path d="M21.3444 32.6006C21.5672 32.8227 21.7441 33.0866 21.8647 33.3772C21.9854 33.6678 22.0475 33.9793 22.0475 34.2939C22.0475 34.6086 21.9854 34.9201 21.8647 35.2107C21.7441 35.5013 21.5672 35.7652 21.3444 35.9873L20.3244 37.0073C19.2416 38.0941 17.9542 38.9554 16.5364 39.5415C15.1187 40.1276 13.5989 40.4268 12.0648 40.4219C9.75449 40.4226 7.4959 39.7381 5.57474 38.455C3.65359 37.1718 2.15618 35.3476 1.27198 33.2133C0.387774 31.0789 0.1565 28.7302 0.607416 26.4644C1.05833 24.1985 2.17118 22.1173 3.80516 20.4841L10.728 13.5612C12.2005 12.089 14.0398 11.037 16.0553 10.5143C18.0709 9.99158 20.1896 10.0171 22.192 10.5882C24.1944 11.1593 26.0078 12.2552 27.4444 13.7625C28.8811 15.2699 29.8887 17.1338 30.363 19.1613C30.4416 19.4696 30.4578 19.7904 30.4108 20.105C30.3637 20.4197 30.2544 20.7218 30.0891 20.9936C29.9238 21.2654 29.706 21.5015 29.4483 21.6881C29.1906 21.8746 28.8983 22.0079 28.5884 22.08C28.2786 22.1521 27.9574 22.1617 27.6439 22.1081C27.3303 22.0545 27.0305 21.9389 26.7622 21.768C26.4939 21.5971 26.2624 21.3744 26.0812 21.1129C25.9001 20.8514 25.7729 20.5563 25.7073 20.245C25.4258 19.0482 24.8298 17.9482 23.9808 17.0589C23.1319 16.1695 22.0608 15.5231 20.8783 15.1863C19.6958 14.8496 18.4449 14.8348 17.2547 15.1434C16.0646 15.4521 14.9785 16.073 14.1088 16.942L7.1859 23.8648C6.2209 24.829 5.56352 26.0578 5.29688 27.3956C5.03024 28.7335 5.16632 30.1203 5.68792 31.3808C6.20952 32.6413 7.09321 33.7188 8.22722 34.4771C9.36123 35.2353 10.6946 35.6403 12.0588 35.6407C12.9652 35.6433 13.8631 35.4661 14.7006 35.1194C15.5381 34.7726 16.2984 34.2632 16.9377 33.6206L17.9557 32.6006C18.1778 32.3774 18.4418 32.2003 18.7326 32.0795C19.0234 31.9586 19.3351 31.8964 19.65 31.8964C19.9649 31.8964 20.2767 31.9586 20.5674 32.0795C20.8582 32.2003 21.1222 32.3774 21.3444 32.6006ZM43.1887 3.99874C40.9976 1.80836 38.0263 0.577881 34.9281 0.577881C31.8299 0.577881 28.8586 1.80836 26.6675 3.99874L25.6495 5.01675C25.2004 5.46586 24.9481 6.07497 24.9481 6.71011C24.9481 7.34524 25.2004 7.95436 25.6495 8.40347C26.0986 8.85257 26.7077 9.10488 27.3429 9.10488C27.978 9.10488 28.5871 8.85257 29.0362 8.40347L30.0562 7.38347C31.3507 6.08898 33.1064 5.36175 34.9371 5.36175C36.7678 5.36175 38.5235 6.08898 39.8179 7.38347C41.1124 8.67795 41.8397 10.4337 41.8397 12.2643C41.8397 14.095 41.1124 15.8507 39.8179 17.1452L32.8831 24.0581C32.2439 24.7007 31.4835 25.2101 30.6461 25.5569C29.8086 25.9036 28.9107 26.0808 28.0043 26.0782C26.4494 26.0771 24.9404 25.5507 23.7221 24.5845C22.5039 23.6183 21.6477 22.2688 21.2926 20.755C21.1489 20.1374 20.7657 19.6021 20.2273 19.267C19.6889 18.9319 19.0395 18.8243 18.4218 18.968C17.8042 19.1118 17.2689 19.4949 16.9338 20.0333C16.5987 20.5717 16.4911 21.2211 16.6348 21.8388C17.2347 24.4025 18.683 26.6884 20.7449 28.3257C22.8068 29.9631 25.3614 30.8559 27.9943 30.8594H28.0043C29.5391 30.8636 31.0595 30.5635 32.4776 29.9763C33.8956 29.3892 35.1832 28.5267 36.2659 27.4388L43.1887 20.516C44.2734 19.4315 45.1338 18.144 45.7209 16.727C46.3079 15.31 46.6101 13.7912 46.6101 12.2574C46.6101 10.7235 46.3079 9.20475 45.7209 7.78773C45.1338 6.3707 44.2734 5.08319 43.1887 3.99874Z" fill="#1ABC9C" />
</svg>