<svg viewBox="0 0 53 44" fill="none" xmlns="http://www.w3.org/2000/svg">
<path d="M30.4375 17.5938H22.5625C21.3463 17.5869 20.1818 17.1007 19.3218 16.2407C18.4618 15.3807 17.9756 14.2162 17.9688 13V5.125C17.9756 3.90879 18.4618 2.74435 19.3218 1.88434C20.1818 1.02434 21.3463 0.538141 22.5625 0.53125H30.4375C31.6537 0.538141 32.8182 1.02434 33.6782 1.88434C34.5382 2.74435 35.0244 3.90879 35.0312 5.125V13C35.0244 14.2162 34.5382 15.3807 33.6782 16.2407C32.8182 17.1007 31.6537 17.5869 30.4375 17.5938ZM22.5625 4.46875C22.3885 4.46875 22.2215 4.53789 22.0985 4.66096C21.9754 4.78403 21.9062 4.95095 21.9062 5.125V13C21.9062 13.174 21.9754 13.341 22.0985 13.464C22.2215 13.5871 22.3885 13.6562 22.5625 13.6562H30.4375C30.6115 13.6562 30.7785 13.5871 30.9015 13.464C31.0246 13.341 31.0938 13.174 31.0938 13V5.125C31.0938 4.95095 31.0246 4.78403 30.9015 4.66096C30.7785 4.53789 30.6115 4.46875 30.4375 4.46875H22.5625ZM10.75 43.8438H5.5C4.28379 43.8369 3.11935 43.3507 2.25934 42.4907C1.39934 41.6307 0.913141 40.4662 0.90625 39.25V34C0.913141 32.7838 1.39934 31.6193 2.25934 30.7593C3.11935 29.8993 4.28379 29.4131 5.5 29.4062H10.75C11.9662 29.4131 13.1307 29.8993 13.9907 30.7593C14.8507 31.6193 15.3369 32.7838 15.3438 34V39.25C15.3369 40.4662 14.8507 41.6307 13.9907 42.4907C13.1307 43.3507 11.9662 43.8369 10.75 43.8438ZM5.5 33.3438C5.32595 33.3438 5.15903 33.4129 5.03596 33.536C4.91289 33.659 4.84375 33.826 4.84375 34V39.25C4.84375 39.424 4.91289 39.591 5.03596 39.714C5.15903 39.8371 5.32595 39.9062 5.5 39.9062H10.75C10.924 39.9062 11.091 39.8371 11.214 39.714C11.3371 39.591 11.4062 39.424 11.4062 39.25V34C11.4062 33.826 11.3371 33.659 11.214 33.536C11.091 33.4129 10.924 33.3438 10.75 33.3438H5.5ZM29.125 43.8438H23.875C22.6588 43.8369 21.4943 43.3507 20.6343 42.4907C19.7743 41.6307 19.2881 40.4662 19.2812 39.25V34C19.2881 32.7838 19.7743 31.6193 20.6343 30.7593C21.4943 29.8993 22.6588 29.4131 23.875 29.4062H29.125C30.3412 29.4131 31.5057 29.8993 32.3657 30.7593C33.2257 31.6193 33.7119 32.7838 33.7188 34V39.25C33.7119 40.4662 33.2257 41.6307 32.3657 42.4907C31.5057 43.3507 30.3412 43.8369 29.125 43.8438ZM23.875 33.3438C23.701 33.3438 23.534 33.4129 23.411 33.536C23.2879 33.659 23.2188 33.826 23.2188 34V39.25C23.2188 39.424 23.2879 39.591 23.411 39.714C23.534 39.8371 23.701 39.9062 23.875 39.9062H29.125C29.299 39.9062 29.466 39.8371 29.589 39.714C29.7121 39.591 29.7812 39.424 29.7812 39.25V34C29.7812 33.826 29.7121 33.659 29.589 33.536C29.466 33.4129 29.299 33.3438 29.125 33.3438H23.875ZM47.5 43.8438H42.25C41.0338 43.8369 39.8693 43.3507 39.0093 42.4907C38.1493 41.6307 37.6631 40.4662 37.6562 39.25V34C37.6631 32.7838 38.1493 31.6193 39.0093 30.7593C39.8693 29.8993 41.0338 29.4131 42.25 29.4062H47.5C48.7162 29.4131 49.8807 29.8993 50.7407 30.7593C51.6007 31.6193 52.0869 32.7838 52.0938 34V39.25C52.0869 40.4662 51.6007 41.6307 50.7407 42.4907C49.8807 43.3507 48.7162 43.8369 47.5 43.8438ZM42.25 33.3438C42.076 33.3438 41.909 33.4129 41.786 33.536C41.6629 33.659 41.5938 33.826 41.5938 34V39.25C41.5938 39.424 41.6629 39.591 41.786 39.714C41.909 39.8371 42.076 39.9062 42.25 39.9062H47.5C47.674 39.9062 47.841 39.8371 47.964 39.714C48.0871 39.591 48.1562 39.424 48.1562 39.25V34C48.1562 33.826 48.0871 33.659 47.964 33.536C47.841 33.4129 47.674 33.3438 47.5 33.3438H42.25Z" fill="#1ABC9C" />
<path d="M44.875 33.3438C44.355 33.337 43.8582 33.1273 43.4904 32.7596C43.1227 32.3918 42.913 31.895 42.9062 31.375V26.125C42.9062 25.951 42.8371 25.784 42.714 25.661C42.591 25.5379 42.424 25.4688 42.25 25.4688H10.75C10.576 25.4688 10.409 25.5379 10.286 25.661C10.1629 25.784 10.0938 25.951 10.0938 26.125V31.375C10.0938 31.8971 9.88633 32.3979 9.51712 32.7671C9.1479 33.1363 8.64715 33.3438 8.125 33.3438C7.60286 33.3438 7.1021 33.1363 6.73288 32.7671C6.36367 32.3979 6.15625 31.8971 6.15625 31.375V26.125C6.16314 24.9088 6.64934 23.7443 7.50934 22.8843C8.36935 22.0243 9.53379 21.5381 10.75 21.5312H42.25C43.4662 21.5381 44.6307 22.0243 45.4907 22.8843C46.3507 23.7443 46.8369 24.9088 46.8438 26.125V31.375C46.837 31.895 46.6273 32.3918 46.2596 32.7596C45.8918 33.1273 45.395 33.337 44.875 33.3438Z" fill="#1ABC9C" />
<path d="M26.5 33.3438C25.98 33.337 25.4832 33.1273 25.1154 32.7596C24.7477 32.3918 24.538 31.895 24.5312 31.375V15.625C24.5312 15.1029 24.7387 14.6021 25.1079 14.2329C25.4771 13.8637 25.9779 13.6562 26.5 13.6562C27.0221 13.6562 27.5229 13.8637 27.8921 14.2329C28.2613 14.6021 28.4688 15.1029 28.4688 15.625V31.375C28.462 31.895 28.2523 32.3918 27.8846 32.7596C27.5168 33.1273 27.02 33.337 26.5 33.3438Z" fill="#1ABC9C" />
</svg>