<svg viewBox="0 0 42 38" fill="none" xmlns="http://www.w3.org/2000/svg" >
<path d="M2.33333 0.333496C1.71449 0.333496 1.121 0.579329 0.683417 1.01691C0.245833 1.4545 0 2.04799 0 2.66683C0 3.28567 0.245833 3.87916 0.683417 4.31674C1.121 4.75433 1.71449 5.00016 2.33333 5.00016H39.6667C40.2855 5.00016 40.879 4.75433 41.3166 4.31674C41.7542 3.87916 42 3.28567 42 2.66683C42 2.04799 41.7542 1.4545 41.3166 1.01691C40.879 0.579329 40.2855 0.333496 39.6667 0.333496H2.33333ZM32.6667 9.66683C33.1534 9.66702 33.6279 9.81942 34.0237 10.1027C34.4195 10.3859 34.7168 10.7859 34.874 11.2465L35.1773 12.1285C35.5227 13.1406 36.0953 14.0601 36.8512 14.8165C37.6072 15.5729 38.5264 16.146 39.5383 16.4918L40.4203 16.7928C40.8805 16.9505 41.2798 17.248 41.5625 17.6438C41.8453 18.0395 41.9973 18.5138 41.9973 19.0002C41.9973 19.4865 41.8453 19.9608 41.5625 20.3565C41.2798 20.7523 40.8805 21.0498 40.4203 21.2075L39.5383 21.5108C38.5262 21.8562 37.6067 22.4288 36.8503 23.1847C36.094 23.9407 35.5209 24.8599 35.175 25.8718L34.874 26.7538C34.7163 27.214 34.4188 27.6133 34.023 27.896C33.6273 28.1788 33.1531 28.3308 32.6667 28.3308C32.1803 28.3308 31.706 28.1788 31.3103 27.896C30.9145 27.6133 30.617 27.214 30.4593 26.7538L30.156 25.8718C29.8107 24.8597 29.2381 23.9402 28.4821 23.1838C27.7261 22.4275 26.8069 21.8544 25.795 21.5085L24.913 21.2075C24.4529 21.0498 24.0535 20.7523 23.7708 20.3565C23.4881 19.9608 23.3361 19.4865 23.3361 19.0002C23.3361 18.5138 23.4881 18.0395 23.7708 17.6438C24.0535 17.248 24.4529 16.9505 24.913 16.7928L25.795 16.4895C26.8071 16.1442 27.7266 15.5715 28.483 14.8156C29.2394 14.0596 29.8125 13.1404 30.1583 12.1285L30.4593 11.2465C30.6165 10.7859 30.9139 10.3859 31.3097 10.1027C31.7055 9.81942 32.1799 9.66702 32.6667 9.66683ZM32.6667 17.1242C32.1147 17.8188 31.4853 18.4482 30.7907 19.0002C31.4876 19.5524 32.1129 20.1777 32.6667 20.8762C33.2189 20.1777 33.8442 19.5524 34.5427 19.0002C33.848 18.4482 33.2186 17.8188 32.6667 17.1242ZM0 35.3335C0 34.7147 0.245833 34.1212 0.683417 33.6836C1.121 33.246 1.71449 33.0002 2.33333 33.0002H4.66667C5.2855 33.0002 5.879 33.246 6.31658 33.6836C6.75417 34.1212 7 34.7147 7 35.3335C7 35.9523 6.75417 36.5458 6.31658 36.9834C5.879 37.421 5.2855 37.6668 4.66667 37.6668H2.33333C1.71449 37.6668 1.121 37.421 0.683417 36.9834C0.245833 36.5458 0 35.9523 0 35.3335ZM25.6667 33.0002C25.0478 33.0002 24.4543 33.246 24.0168 33.6836C23.5792 34.1212 23.3333 34.7147 23.3333 35.3335C23.3333 35.9523 23.5792 36.5458 24.0168 36.9834C24.4543 37.421 25.0478 37.6668 25.6667 37.6668H28C28.6188 37.6668 29.2123 37.421 29.6499 36.9834C30.0875 36.5458 30.3333 35.9523 30.3333 35.3335C30.3333 34.7147 30.0875 34.1212 29.6499 33.6836C29.2123 33.246 28.6188 33.0002 28 33.0002H25.6667ZM11.6667 35.3335C11.6667 34.7147 11.9125 34.1212 12.3501 33.6836C12.7877 33.246 13.3812 33.0002 14 33.0002H16.3333C16.9522 33.0002 17.5457 33.246 17.9832 33.6836C18.4208 34.1212 18.6667 34.7147 18.6667 35.3335C18.6667 35.9523 18.4208 36.5458 17.9832 36.9834C17.5457 37.421 16.9522 37.6668 16.3333 37.6668H14C13.3812 37.6668 12.7877 37.421 12.3501 36.9834C11.9125 36.5458 11.6667 35.9523 11.6667 35.3335ZM37.3333 33.0002C36.7145 33.0002 36.121 33.246 35.6834 33.6836C35.2458 34.1212 35 34.7147 35 35.3335C35 35.9523 35.2458 36.5458 35.6834 36.9834C36.121 37.421 36.7145 37.6668 37.3333 37.6668H39.6667C40.2855 37.6668 40.879 37.421 41.3166 36.9834C41.7542 36.5458 42 35.9523 42 35.3335C42 34.7147 41.7542 34.1212 41.3166 33.6836C40.879 33.246 40.2855 33.0002 39.6667 33.0002H37.3333ZM0 19.0002C0 18.3813 0.245833 17.7878 0.683417 17.3502C1.121 16.9127 1.71449 16.6668 2.33333 16.6668H16.3333C16.9522 16.6668 17.5457 16.9127 17.9832 17.3502C18.4208 17.7878 18.6667 18.3813 18.6667 19.0002C18.6667 19.619 18.4208 20.2125 17.9832 20.6501C17.5457 21.0877 16.9522 21.3335 16.3333 21.3335H2.33333C1.71449 21.3335 1.121 21.0877 0.683417 20.6501C0.245833 20.2125 0 19.619 0 19.0002Z" fill="#1ABC9C" />
</svg>