<svg viewBox="0 0 43 43" fill="none" xmlns="http://www.w3.org/2000/svg" >
<path fillRule="evenodd" clipRule="evenodd" d="M16.9392 1.88916C18.1488 0.679551 19.7894 0 21.5 0C23.2106 0 24.8512 0.679551 26.0608 1.88916C27.2704 3.09877 27.95 4.73935 27.95 6.45C27.95 8.16065 27.2704 9.80123 26.0608 11.0108C25.3741 11.6976 24.5485 12.2134 23.65 12.5311V17.4731C25.125 17.8539 26.4856 18.6234 27.5811 19.7189C29.1939 21.3317 30.1 23.5191 30.1 25.8C30.1 26.8758 29.8984 27.9307 29.5162 28.9145L32.8296 31.2811C33.9107 30.5177 35.2088 30.1 36.55 30.1C38.2607 30.1 39.9012 30.7796 41.1108 31.9892C42.3204 33.1988 43 34.8394 43 36.55C43 38.2607 42.3204 39.9012 41.1108 41.1108C39.9012 42.3204 38.2607 43 36.55 43C34.8394 43 33.1988 42.3204 31.9892 41.1108C30.7796 39.9012 30.1 38.2607 30.1 36.55C30.1 35.9497 30.1837 35.3579 30.3446 34.7904L27.0064 32.406C25.4672 33.6892 23.5202 34.4 21.5 34.4C19.4798 34.4 17.5328 33.6892 15.9936 32.406L12.6554 34.7904C12.8163 35.3579 12.9 35.9497 12.9 36.55C12.9 38.2607 12.2204 39.9012 11.0108 41.1108C9.80123 42.3204 8.16065 43 6.45 43C4.73935 43 3.09877 42.3204 1.88916 41.1108C0.679551 39.9012 0 38.2607 0 36.55C0 34.8394 0.679551 33.1988 1.88916 31.9892C3.09877 30.7796 4.73935 30.1 6.45 30.1C7.79119 30.1 9.08932 30.5177 10.1704 31.2811L13.4838 28.9145C13.1016 27.9307 12.9 26.8758 12.9 25.8C12.9 23.5191 13.8061 21.3317 15.4189 19.7189C16.5144 18.6234 17.875 17.8539 19.35 17.4731V12.5311C18.4515 12.2134 17.6259 11.6976 16.9392 11.0108C15.7296 9.80123 15.05 8.16065 15.05 6.45C15.05 4.73935 15.7296 3.09877 16.9392 1.88916ZM21.5 4.3C20.9298 4.3 20.3829 4.52652 19.9797 4.92972C19.5765 5.33292 19.35 5.87979 19.35 6.45C19.35 7.02021 19.5765 7.56708 19.9797 7.97028C20.3829 8.37348 20.9298 8.6 21.5 8.6C22.0702 8.6 22.6171 8.37348 23.0203 7.97028C23.4235 7.56708 23.65 7.02021 23.65 6.45C23.65 5.87979 23.4235 5.33292 23.0203 4.92972C22.6171 4.52652 22.0702 4.3 21.5 4.3ZM21.5 21.5C20.3596 21.5 19.2658 21.953 18.4594 22.7594C17.653 23.5658 17.2 24.6596 17.2 25.8C17.2 26.9404 17.653 28.0342 18.4594 28.8406C19.2658 29.647 20.3596 30.1 21.5 30.1C22.6404 30.1 23.7342 29.647 24.5406 28.8406C25.347 28.0342 25.8 26.9404 25.8 25.8C25.8 24.6596 25.347 23.5658 24.5406 22.7594C23.7342 21.953 22.6404 21.5 21.5 21.5ZM6.45 34.4C5.87979 34.4 5.33292 34.6265 4.92972 35.0297C4.52652 35.4329 4.3 35.9798 4.3 36.55C4.3 37.1202 4.52652 37.6671 4.92972 38.0703C5.33292 38.4735 5.87979 38.7 6.45 38.7C7.02021 38.7 7.56708 38.4735 7.97028 38.0703C8.37348 37.6671 8.6 37.1202 8.6 36.55C8.6 35.9798 8.37348 35.4329 7.97028 35.0297C7.56708 34.6265 7.02021 34.4 6.45 34.4ZM36.55 34.4C35.9798 34.4 35.4329 34.6265 35.0297 35.0297C34.6265 35.4329 34.4 35.9798 34.4 36.55C34.4 37.1202 34.6265 37.6671 35.0297 38.0703C35.4329 38.4735 35.9798 38.7 36.55 38.7C37.1202 38.7 37.6671 38.4735 38.0703 38.0703C38.4735 37.6671 38.7 37.1202 38.7 36.55C38.7 35.9798 38.4735 35.4329 38.0703 35.0297C37.6671 34.6265 37.1202 34.4 36.55 34.4Z" fill="#1ABC9C"/>
</svg>