<svg viewBox="0 0 46 42" fill="none" xmlns="http://www.w3.org/2000/svg" >
<path d="M14.6673 0.25C10.7996 0.25 7.09025 1.78645 4.35534 4.52136C1.62044 7.25627 0.0839844 10.9656 0.0839844 14.8333C0.0839844 18.7011 1.62044 22.4104 4.35534 25.1453C7.09025 27.8802 10.7996 29.4167 14.6673 29.4167H16.8965C16.697 28.0349 16.697 26.6317 16.8965 25.25H14.6673C11.9046 25.25 9.25513 24.1525 7.30162 22.199C5.34812 20.2455 4.25065 17.596 4.25065 14.8333C4.25065 12.0707 5.34812 9.42114 7.30162 7.46764C9.25513 5.51413 11.9046 4.41667 14.6673 4.41667H31.334C32.8788 4.41635 34.4044 4.75964 35.8002 5.42168C37.1959 6.08371 38.427 7.04791 39.4042 8.24443C40.3813 9.44095 41.0801 10.8398 41.4499 12.3397C41.8197 13.8397 41.8513 15.403 41.5423 16.9167C42.7704 18.1196 43.7762 19.5302 44.5131 21.0833C45.5676 18.8603 46.0425 16.4066 45.8936 13.9506C45.7447 11.4946 44.9767 9.11628 43.6614 7.03694C42.346 4.9576 40.5259 3.24487 38.3705 2.0582C36.2151 0.871527 33.7945 0.249492 31.334 0.25H14.6673ZM31.334 21.0833C29.6764 21.0833 28.0867 21.7418 26.9146 22.9139C25.7425 24.086 25.084 25.6757 25.084 27.3333C25.084 28.9909 25.7425 30.5806 26.9146 31.7528C28.0867 32.9249 29.6764 33.5833 31.334 33.5833C32.9916 33.5833 34.5813 32.9249 35.7534 31.7528C36.9255 30.5806 37.584 28.9909 37.584 27.3333C37.584 25.6757 36.9255 24.086 35.7534 22.9139C34.5813 21.7418 32.9916 21.0833 31.334 21.0833ZM20.9173 27.3333C20.9177 25.7092 21.2979 24.1076 22.0275 22.6566C22.757 21.2055 23.8158 19.9452 25.1192 18.9762C26.4226 18.0072 27.9346 17.3564 29.5343 17.0758C31.134 16.7952 32.7772 16.8926 34.3326 17.3601C35.888 17.8276 37.3125 18.6524 38.4924 19.7685C39.6722 20.8846 40.5748 22.2612 41.1279 23.7882C41.6811 25.3153 41.8695 26.9505 41.6781 28.5633C41.4867 30.1762 40.9208 31.7219 40.0257 33.0771L45.3069 38.3604L42.3611 41.3063L37.0777 36.025C35.5076 37.0628 33.6857 37.6558 31.8056 37.741C29.9255 37.8262 28.0574 37.4004 26.3999 36.509C24.7424 35.6175 23.3573 34.2936 22.392 32.678C21.4266 31.0624 20.917 29.2154 20.9173 27.3333Z" fill="#1ABC9C" />
</svg>