 <svg viewBox="0 0 39 44" fill="none" xmlns="http://www.w3.org/2000/svg" >
<path d="M2.5 35.25L2.50531 26.7957C2.50531 26.5139 2.61725 26.2436 2.81651 26.0444C3.01577 25.8451 3.28602 25.7332 3.56781 25.7332H14.1949C15.1746 25.7332 15.1692 24.8641 15.1692 22.7964C15.1692 20.7288 9.96088 18.9874 9.96088 11.7188C9.96088 4.45025 15.3562 2.3125 19.84 2.3125C24.3237 2.3125 29.2081 4.45025 29.2081 11.7188C29.2081 18.9874 24.0273 20.1434 24.0273 22.7964C24.0273 25.4495 24.0273 25.7332 24.8561 25.7332H35.4386C35.7204 25.7332 35.9906 25.8451 36.1899 26.0444C36.3891 26.2436 36.5011 26.5139 36.5011 26.7957V35.25H2.5Z" stroke="#1ABC9C" stroke-width="4" stroke-linejoin="round" />
<path d="M2.5 41.625H36.5" stroke="#1ABC9C" stroke-width="4" stroke-linecap="round" stroke-linejoin="round" />
</svg>