<svg viewBox="0 0 48 41" fill="none" xmlns="http://www.w3.org/2000/svg">
<path d="M14.7709 16.9159C9.41134 16.9159 5.12372 21.1449 5.12372 26.4312C5.12372 28.2919 5.65967 30.0469 6.60295 31.5059L0 38.0609L2.9799 41L9.6686 34.5085C11.1478 35.4177 12.9058 35.9464 14.7709 35.9464C20.1304 35.9464 24.418 31.7174 24.418 26.4312C24.418 21.1449 20.1304 16.9159 14.7709 16.9159ZM14.7709 31.7174C13.3494 31.7174 11.9862 31.1604 10.9811 30.1691C9.97601 29.1777 9.41134 27.8331 9.41134 26.4312C9.41134 25.0292 9.97601 23.6846 10.9811 22.6932C11.9862 21.7019 13.3494 21.1449 14.7709 21.1449C16.1923 21.1449 17.5555 21.7019 18.5606 22.6932C19.5658 23.6846 20.1304 25.0292 20.1304 26.4312C20.1304 27.8331 19.5658 29.1777 18.5606 30.1691C17.5555 31.1604 16.1923 31.7174 14.7709 31.7174ZM48 4.22898V33.8319C48 36.179 46.092 38.0609 43.7124 38.0609H22.167C23.9035 37.0036 25.3828 35.5446 26.4975 33.8319H43.7124V12.687H26.5619V4.22898H5.12372V16.5353C2.48682 19.0304 0.836088 22.5405 0.836088 26.4312V4.22898C0.836088 1.90304 2.76552 0 5.12372 0H43.7124C44.8495 0 45.9401 0.445552 46.7442 1.23864C47.5483 2.03173 48 3.10739 48 4.22898Z" fill="#1ABC9C" />
</svg>