<svg viewBox="0 0 36 44" fill="none" xmlns="http://www.w3.org/2000/svg" >
<path d="M34.9866 14.4892C34.8822 14.2505 34.7362 14.0322 34.5554 13.8446L21.3554 0.6446C21.1678 0.46383 20.9495 0.317829 20.7108 0.2134C20.6448 0.1826 20.5744 0.165 20.504 0.1408C20.3199 0.0783853 20.1283 0.0406569 19.9342 0.0286C19.888 0.0242 19.8462 0 19.8 0H4.4C1.9734 0 0 1.9734 0 4.4V39.6C0 42.0266 1.9734 44 4.4 44H30.8C33.2266 44 35.2 42.0266 35.2 39.6V15.4C35.2 15.3538 35.1758 15.312 35.1714 15.2636C35.1593 15.0695 35.1216 14.8779 35.0592 14.6938C35.0387 14.6234 35.0145 14.5552 34.9866 14.4892ZM27.6892 13.2H22V7.5108L27.6892 13.2ZM4.4 39.6V4.4H17.6V15.4C17.6 15.9835 17.8318 16.5431 18.2444 16.9556C18.6569 17.3682 19.2165 17.6 19.8 17.6H30.8L30.8044 39.6H4.4Z" fill="#1ABC9C" />
<path d="M8.80078 22H26.4008V26.4H8.80078V22ZM8.80078 30.8H26.4008V35.2H8.80078V30.8ZM8.80078 13.2H13.2008V17.6H8.80078V13.2Z" fill="#1ABC9C" />
</svg>