<svg width="44" height="44" viewBox="0 0 44 44" fill="none" xmlns="http://www.w3.org/2000/svg">
<path d="M25.9955 3.86783C26.0539 3.6497 26.1546 3.44521 26.292 3.26603C26.4294 3.08685 26.6008 2.93651 26.7963 2.82358C26.9918 2.71065 27.2077 2.63736 27.4316 2.60789C27.6554 2.57841 27.8829 2.59334 28.101 2.65181C31.2873 3.48315 34.1943 5.14882 36.5228 7.47728C38.8513 9.80574 40.5169 12.7128 41.3483 15.8991C41.4067 16.1172 41.4217 16.3446 41.3922 16.5685C41.3627 16.7924 41.2894 17.0082 41.1765 17.2038C41.0636 17.3993 40.9132 17.5707 40.734 17.7081C40.5549 17.8455 40.3504 17.9462 40.1322 18.0045C39.9871 18.0428 39.8376 18.0622 39.6875 18.0626C39.3088 18.0625 38.9406 17.9374 38.6403 17.7066C38.34 17.4759 38.1243 17.1524 38.0268 16.7864C37.3488 14.1853 35.9893 11.8121 34.0886 9.91143C32.188 8.01074 29.8148 6.65132 27.2137 5.9733C26.9954 5.91518 26.7906 5.8146 26.6112 5.6773C26.4318 5.53999 26.2812 5.36867 26.1681 5.17311C26.055 4.97756 25.9815 4.76163 25.9519 4.53765C25.9223 4.31368 25.9371 4.08606 25.9955 3.86783ZM25.4949 12.8483C28.4576 13.6389 30.3612 15.5424 31.1518 18.5051C31.2493 18.8711 31.465 19.1946 31.7653 19.4254C32.0656 19.6562 32.4338 19.7813 32.8125 19.7813C32.9626 19.781 33.1121 19.7615 33.2572 19.7233C33.4754 19.665 33.6799 19.5642 33.859 19.4268C34.0382 19.2894 34.1886 19.118 34.3015 18.9225C34.4144 18.727 34.4877 18.5111 34.5172 18.2873C34.5467 18.0634 34.5317 17.8359 34.4733 17.6178C33.3733 13.5014 30.4987 10.6268 26.3822 9.52681C25.9418 9.40915 25.4726 9.47127 25.078 9.69952C24.6833 9.92777 24.3955 10.3034 24.2779 10.7439C24.1602 11.1844 24.2223 11.6535 24.4506 12.0482C24.6788 12.4428 25.0545 12.7306 25.4949 12.8483ZM43.0992 33.3336C42.7162 36.2448 41.2865 38.917 39.0772 40.8512C36.8679 42.7853 34.0301 43.8491 31.0938 43.8438C14.0352 43.8438 0.156269 29.9649 0.156269 12.9063C0.151006 9.97001 1.21478 7.13221 3.1489 4.92291C5.08302 2.71362 7.75523 1.28392 10.6664 0.900835C11.4026 0.810946 12.1481 0.961554 12.7916 1.33018C13.4352 1.6988 13.9422 2.26566 14.2371 2.94615L18.7746 13.076V13.1018C19.0004 13.6227 19.0936 14.1914 19.046 14.7571C18.9984 15.3229 18.8114 15.868 18.5018 16.3438C18.4631 16.4018 18.4223 16.4555 18.3793 16.5092L13.9063 21.8116C15.5154 25.0815 18.9358 28.4717 22.2487 30.0852L27.4779 25.6358C27.5293 25.5926 27.5831 25.5524 27.6391 25.5155C28.1145 25.1984 28.6615 25.0048 29.2306 24.9523C29.7996 24.8998 30.3728 24.99 30.8983 25.2147L30.9262 25.2276L41.0475 29.7629C41.7292 30.0568 42.2974 30.5634 42.6673 31.207C43.0371 31.8507 43.1886 32.5967 43.0992 33.3336ZM39.6875 32.904H39.6639L29.5662 28.3815L24.3348 32.8309C24.2842 32.8741 24.2311 32.9142 24.1758 32.9512C23.6811 33.2812 23.1093 33.4773 22.5162 33.5202C21.9231 33.5631 21.329 33.4515 20.792 33.1961C16.768 31.2518 12.7569 27.2708 10.8104 23.2897C10.5526 22.7566 10.437 22.1659 10.4746 21.5749C10.5122 20.984 10.7019 20.4128 11.0252 19.9167C11.0616 19.8583 11.1025 19.803 11.1477 19.7512L15.625 14.4424L11.1133 4.34478C11.1124 4.33621 11.1124 4.32757 11.1133 4.319C9.02986 4.59077 7.11694 5.61271 5.73278 7.19343C4.34861 8.77414 3.58814 10.8052 3.59377 12.9063C3.60173 20.1973 6.5016 27.1874 11.6571 32.3429C16.8127 37.4985 23.8028 40.3983 31.0938 40.4063C33.1936 40.4135 35.2241 39.6557 36.8057 38.2745C38.3874 36.8934 39.4118 34.9834 39.6875 32.9018V32.904Z" fill="#1ABC9C"/>
</svg>