<svg width="47" height="47" viewBox="0 0 47 47" fill="none" xmlns="http://www.w3.org/2000/svg" >
<path fillRule="evenodd" clipRule="evenodd" d="M37.6 0C38.8979 0 39.95 1.05213 39.95 2.35V7.05H44.65C45.9479 7.05 47 8.10213 47 9.4C47 10.6979 45.9479 11.75 44.65 11.75H39.95V16.45C39.95 17.7479 38.8979 18.8 37.6 18.8C36.3021 18.8 35.25 17.7479 35.25 16.45V11.75H30.55C29.2521 11.75 28.2 10.6979 28.2 9.4C28.2 8.10213 29.2521 7.05 30.55 7.05H35.25V2.35C35.25 1.05213 36.3021 0 37.6 0ZM2.0649 6.7649C3.38703 5.44276 5.18022 4.7 7.05 4.7H21.15C22.4479 4.7 23.5 5.75213 23.5 7.05C23.5 8.34787 22.4479 9.4 21.15 9.4H7.05C6.42674 9.4 5.82901 9.64759 5.3883 10.0883C4.94759 10.529 4.7 11.1267 4.7 11.75V39.95C4.7 40.5733 4.94759 41.171 5.3883 41.6117C5.82901 42.0524 6.42674 42.3 7.05 42.3H35.25C35.8733 42.3 36.471 42.0524 36.9117 41.6117C37.3524 41.171 37.6 40.5733 37.6 39.95V25.85C37.6 24.5521 38.6521 23.5 39.95 23.5C41.2479 23.5 42.3 24.5521 42.3 25.85V39.95C42.3 41.8198 41.5572 43.613 40.2351 44.9351C38.913 46.2572 37.1198 47 35.25 47H7.05C5.18022 47 3.38703 46.2572 2.0649 44.9351C0.742766 43.613 0 41.8198 0 39.95V11.75C0 9.88022 0.742765 8.08703 2.0649 6.7649ZM21.15 14.1C22.4479 14.1 23.5 15.1521 23.5 16.45V35.25C23.5 36.5479 22.4479 37.6 21.15 37.6C19.8521 37.6 18.8 36.5479 18.8 35.25V16.45C18.8 15.1521 19.8521 14.1 21.15 14.1ZM11.75 21.15C13.0479 21.15 14.1 22.2021 14.1 23.5V35.25C14.1 36.5479 13.0479 37.6 11.75 37.6C10.4521 37.6 9.4 36.5479 9.4 35.25V23.5C9.4 22.2021 10.4521 21.15 11.75 21.15ZM30.55 28.2C31.8479 28.2 32.9 29.2521 32.9 30.55V35.25C32.9 36.5479 31.8479 37.6 30.55 37.6C29.2521 37.6 28.2 36.5479 28.2 35.25V30.55C28.2 29.2521 29.2521 28.2 30.55 28.2Z" fill="#1ABC9C" />
</svg>