<svg width="40" height="42" viewBox="0 0 40 42" fill="none" xmlns="http://www.w3.org/2000/svg">
<path d="M16.9264 0.166504L32.1306 4.9165C32.5546 5.04888 32.9253 5.31334 33.1884 5.67127C33.4515 6.0292 33.5933 6.46186 33.5931 6.90609V10.5832H37.7598C38.3123 10.5832 38.8422 10.8027 39.2329 11.1934C39.6236 11.5841 39.8431 12.114 39.8431 12.6665V16.8332H12.7598V12.6665C12.7598 12.114 12.9793 11.5841 13.37 11.1934C13.7607 10.8027 14.2906 10.5832 14.8431 10.5832H29.4264V8.43734L16.9264 4.529L4.42643 8.43734V23.8623C4.42613 25.1378 4.71862 26.3963 5.28136 27.541C5.8441 28.6856 6.66207 29.6857 7.67227 30.4644L8.06601 30.7478L16.9264 36.7894L24.8056 31.4165H14.8431C14.2906 31.4165 13.7607 31.197 13.37 30.8063C12.9793 30.4156 12.7598 29.8857 12.7598 29.3332V20.9998H39.8431V29.3332C39.8431 29.8857 39.6236 30.4156 39.2329 30.8063C38.8422 31.197 38.3123 31.4165 37.7598 31.4165L31.0514 31.4186C30.2452 32.4811 29.266 33.4186 28.1348 34.1894L16.9264 41.8332L5.7181 34.1915C4.03585 33.0445 2.65925 31.504 1.70797 29.7038C0.756699 27.9037 0.259555 25.8984 0.259766 23.8623V6.90609C0.260017 6.46222 0.402029 6.03003 0.665104 5.67252C0.928178 5.315 1.29856 5.05086 1.72227 4.91859L16.9264 0.166504Z" fill="#1ABC9C"/>
</svg>