<svg width="57" height="28" viewBox="0 0 57 28" fill="none" xmlns="http://www.w3.org/2000/svg">
<path fillRule="evenodd" clipRule="evenodd" d="M1.66949 1.6402C2.73845 0.59 4.18826 0 5.7 0H14.25C15.824 0 17.1 1.2536 17.1 2.8C17.1 4.3464 15.824 5.6 14.25 5.6L5.7 5.6V11.2H11.4C12.9117 11.2 14.3616 11.79 15.4305 12.8402C16.4995 13.8904 17.1 15.3148 17.1 16.8V22.4C17.1 23.8852 16.4995 25.3096 15.4305 26.3598C14.3616 27.41 12.9117 28 11.4 28H2.85C1.27599 28 0 26.7464 0 25.2C0 23.6536 1.27599 22.4 2.85 22.4H11.4V16.8H5.7C4.18826 16.8 2.73845 16.21 1.66949 15.1598C0.600534 14.1096 0 12.6852 0 11.2V5.6C0 4.11479 0.600534 2.69041 1.66949 1.6402ZM19.95 2.8C19.95 1.2536 21.226 0 22.8 0H34.2C35.774 0 37.05 1.2536 37.05 2.8C37.05 4.3464 35.774 5.6 34.2 5.6H25.65V11.2H31.35C32.924 11.2 34.2 12.4536 34.2 14C34.2 15.5464 32.924 16.8 31.35 16.8H25.65V22.4H34.2C35.774 22.4 37.05 23.6536 37.05 25.2C37.05 26.7464 35.774 28 34.2 28H22.8C21.226 28 19.95 26.7464 19.95 25.2V2.8ZM41.5695 1.6402C42.6384 0.589998 44.0883 0 45.6 0H51.3C52.8117 0 54.2616 0.589998 55.3305 1.6402C56.3995 2.69041 57 4.11479 57 5.6V22.4C57 23.8852 56.3995 25.3096 55.3305 26.3598C54.2616 27.41 52.8117 28 51.3 28H45.6C44.0883 28 42.6384 27.41 41.5695 26.3598C40.5005 25.3096 39.9 23.8852 39.9 22.4V5.6C39.9 4.11479 40.5005 2.69041 41.5695 1.6402ZM51.3 5.6L45.6 5.6L45.6 22.4H51.3V5.6Z" fill="#1ABC9C" />
</svg>