<svg width="38" height="38" viewBox="0 0 38 38" fill="none" xmlns="http://www.w3.org/2000/svg">
<path d="M36.8138 9.8431C37.003 9.65421 37.1532 9.42986 37.2556 9.18287C37.3581 8.93588 37.4108 8.67111 37.4108 8.40372C37.4108 8.13633 37.3581 7.87156 37.2556 7.62457C37.1532 7.37758 37.003 7.15323 36.8138 6.96435L31.0358 1.18643C30.847 0.997159 30.6226 0.846999 30.3756 0.744545C30.1286 0.642092 29.8639 0.589355 29.5965 0.589355C29.3291 0.589355 29.0643 0.642092 28.8173 0.744545C28.5703 0.846999 28.346 0.997159 28.1571 1.18643L18.99 10.3535L11.0479 2.41143C9.45542 0.818929 6.8625 0.818929 5.27 2.41143L1.39083 6.2906C-0.201667 7.8831 -0.201667 10.476 1.39083 12.0685L9.33292 20.0106L0.125 29.2185V37.8752H8.78167L18.01 28.6468L25.9521 36.5889C27.8917 38.5285 30.505 37.8139 31.73 36.5889L35.6092 32.7098C37.2017 31.1173 37.2017 28.5243 35.6092 26.9318L27.6671 18.9898L36.8138 9.8431ZM4.29 9.16935L8.14875 5.29018L10.7417 7.8831L8.3325 10.3127L11.2113 13.1914L13.6408 10.7618L16.0908 13.2118L12.2117 17.091L4.29 9.16935ZM27.2179 24.3593L24.7883 26.7889L27.6671 29.6677L30.0967 27.2381L32.6896 29.831L28.8104 33.7102L20.8683 25.7681L24.7475 21.8889L27.2179 24.3593ZM7.08708 33.7918H4.20833V30.9131L23.8288 11.2927L26.4829 13.9468L26.7075 14.1714L7.08708 33.7918ZM26.7075 8.39351L29.5863 5.51476L32.465 8.39351L29.5863 11.2723L26.7075 8.39351Z" fill="#1ABC9C"/>
</svg>