<svg width="40" height="40" viewBox="0 0 40 40" fill="none" xmlns="http://www.w3.org/2000/svg">
<circle cx="20" cy="20" r="20" fill="#1ABC9C"/>
<path d="M24.5842 15.4166C23.0911 15.416 21.6335 15.8713 20.4061 16.7214C19.1787 17.5716 18.24 18.7761 17.7156 20.1741L19.4334 20.8185C19.8872 19.6134 20.7492 18.6057 21.8694 17.9708C22.9897 17.3358 24.2971 17.1139 25.5641 17.3437C26.831 17.5734 27.9773 18.2403 28.8032 19.2281C29.6292 20.216 30.0825 21.4622 30.0842 22.7499C30.0842 24.2086 29.5047 25.6075 28.4733 26.639C27.4418 27.6704 26.0429 28.2499 24.5842 28.2499H15.4175C14.1188 28.2507 12.8617 27.7919 11.8688 26.9548C10.8759 26.1177 10.2113 24.9562 9.99261 23.676C9.77392 22.3959 10.0153 21.0796 10.674 19.9603C11.3327 18.8411 12.3662 17.991 13.5915 17.5606C13.513 15.9772 14.0235 14.4208 15.0245 13.1914C16.0255 11.962 17.4462 11.1467 19.0127 10.9027C20.5792 10.6586 22.1805 11.0032 23.5081 11.8698C24.8356 12.7365 25.7953 14.0639 26.2021 15.5962C25.6711 15.4765 25.1285 15.4162 24.5842 15.4166Z" fill="white"/>
</svg>
